<svg width="25" height="25" viewBox="0 0 25 25" fill="none" xmlns="http://www.w3.org/2000/svg">
<path d="M12.073 0.00585938C5.40504 0.00585938 -6.10352e-05 5.41096 -6.10352e-05 12.0789C-6.10352e-05 18.1046 4.41505 23.0992 10.1872 24.0059V15.568H7.12062V12.0789H10.1872V9.41921C10.1872 6.39371 11.9885 4.7228 14.7472 4.7228C16.068 4.7228 17.4491 4.95822 17.4491 4.95822V7.92819H15.9279C14.4272 7.92819 13.96 8.85902 13.96 9.814V12.0789H17.3079L16.773 15.568H13.96V24.0059C19.7309 23.1004 24.146 18.1033 24.146 12.0789C24.146 5.41096 18.7409 0.00585938 12.073 0.00585938Z" fill="white"/>
</svg>
