<svg width="20" height="16" viewBox="0 0 20 16" fill="none" xmlns="http://www.w3.org/2000/svg">
<path d="M19.5428 2.498C19.9998 4.28 19.9998 8 19.9998 8C19.9998 8 19.9998 11.72 19.5428 13.502C19.2888 14.487 18.5458 15.262 17.6048 15.524C15.8958 16 9.99982 16 9.99982 16C9.99982 16 4.10682 16 2.39482 15.524C1.44982 15.258 0.707817 14.484 0.456817 13.502C-0.000183076 11.72 -0.000183105 8 -0.000183105 8C-0.000183105 8 -0.000183076 4.28 0.456817 2.498C0.710817 1.513 1.45382 0.738 2.39482 0.476C4.10682 -1.78814e-07 9.99982 0 9.99982 0C9.99982 0 15.8958 -1.78814e-07 17.6048 0.476C18.5498 0.742 19.2918 1.516 19.5428 2.498ZM7.99982 11.5L13.9998 8L7.99982 4.5V11.5Z" fill="white"/>
</svg>
