<svg width="21" height="20" viewBox="0 0 21 20" fill="none" xmlns="http://www.w3.org/2000/svg">
<path d="M11.366 0.0933446C8.97328 -0.235801 6.54226 0.311897 4.52184 1.6353C2.50142 2.95871 1.02805 4.96845 0.373806 7.29341C-0.280441 9.61838 -0.0713854 12.1015 0.96237 14.2844C1.99613 16.4673 3.78476 18.2024 5.99801 19.1693C5.93816 18.4012 5.99309 17.6283 6.16101 16.8763C6.34601 16.0373 7.45701 11.4133 7.45701 11.4133C7.23578 10.9174 7.12521 10.3793 7.13301 9.83635C7.13301 8.35135 7.99001 7.24335 9.05601 7.24335C9.24752 7.24056 9.43738 7.27904 9.61269 7.35618C9.78799 7.43331 9.94463 7.54729 10.072 7.69037C10.1993 7.83344 10.2943 8.00226 10.3506 8.18534C10.4068 8.36841 10.423 8.56146 10.398 8.75135C10.398 9.65135 9.82001 11.0133 9.51801 12.2913C9.45833 12.5257 9.45454 12.7709 9.50696 13.007C9.55937 13.2431 9.66652 13.4636 9.81977 13.6507C9.97302 13.8378 10.1681 13.9863 10.3892 14.0842C10.6104 14.1821 10.8515 14.2267 11.093 14.2143C12.991 14.2143 14.263 11.7833 14.263 8.91335C14.263 6.71335 12.806 5.06535 10.12 5.06535C9.47739 5.04037 8.83639 5.14627 8.23594 5.3766C7.63549 5.60693 7.08812 5.95689 6.62706 6.40523C6.166 6.85358 5.80086 7.39095 5.55383 7.98472C5.3068 8.57849 5.18302 9.21628 5.19001 9.85935C5.16138 10.5727 5.39151 11.2723 5.83801 11.8293C5.92144 11.8916 5.98236 11.9793 6.01158 12.0793C6.0408 12.1792 6.03674 12.2859 6.00001 12.3833C5.95401 12.5673 5.83801 13.0063 5.79201 13.1673C5.78244 13.2219 5.76018 13.2735 5.72703 13.318C5.69388 13.3624 5.65076 13.3984 5.60114 13.4231C5.55152 13.4478 5.49679 13.4605 5.44136 13.4602C5.38593 13.4599 5.33135 13.4466 5.28201 13.4213C3.89801 12.8673 3.24601 11.3443 3.24601 9.60535C3.24601 6.75835 5.63001 3.35035 10.4 3.35035C14.196 3.35035 16.72 6.12735 16.72 9.09735C16.72 13.0063 14.543 15.9453 11.326 15.9453C10.8452 15.9607 10.3683 15.8546 9.93934 15.6368C9.51041 15.419 9.14332 15.0966 8.87201 14.6993C8.87201 14.6993 8.29401 17.0153 8.18001 17.4533C7.9473 18.2101 7.60392 18.9282 7.16101 19.5843C8.08401 19.8643 9.04301 20.0043 10.007 20.0003C11.3206 20.0014 12.6215 19.7433 13.8352 19.2409C15.0489 18.7385 16.1516 18.0016 17.0801 17.0725C18.0086 16.1433 18.7447 15.0401 19.2463 13.826C19.7478 12.612 20.005 11.3109 20.003 9.99735C20.0018 7.58234 19.1268 5.24934 17.5396 3.42912C15.9525 1.60891 13.7604 0.424409 11.368 0.0943446L11.366 0.0933446Z" fill="white"/>
</svg>
