<svg width="25" height="20" viewBox="0 0 25 20" fill="none" xmlns="http://www.w3.org/2000/svg">
<path d="M24.5971 2.37422C23.6758 2.78173 22.6988 3.04936 21.6985 3.16826C22.7529 2.53765 23.542 1.5452 23.9189 0.375842C22.9294 0.964736 21.8445 1.37744 20.7138 1.60069C19.9543 0.788042 18.9475 0.249089 17.8501 0.0676199C16.7527 -0.113849 15.6261 0.0723338 14.6454 0.597224C13.6647 1.12211 12.8849 1.9563 12.4272 2.9701C11.9695 3.9839 11.8596 5.12051 12.1145 6.20323C10.1078 6.10266 8.14469 5.58118 6.35261 4.67267C4.56053 3.76416 2.97956 2.48892 1.71232 0.92974C1.26375 1.70019 1.02803 2.57602 1.0293 3.46753C1.0293 5.21732 1.91988 6.76316 3.27385 7.66823C2.47258 7.643 1.68894 7.42661 0.988266 7.0371V7.09985C0.988508 8.26521 1.39177 9.39462 2.12967 10.2966C2.86757 11.1986 3.8947 11.8176 5.03691 12.0487C4.29309 12.2503 3.51316 12.28 2.75615 12.1356C3.0782 13.1387 3.70587 14.016 4.5513 14.6446C5.39673 15.2732 6.41758 15.6217 7.47092 15.6412C6.42404 16.4634 5.22538 17.0712 3.94345 17.4298C2.66153 17.7885 1.32148 17.8909 -6.10352e-05 17.7313C2.30688 19.2149 4.99238 20.0026 7.7352 20C17.0187 20 22.0955 12.3094 22.0955 5.63968C22.0955 5.42247 22.0895 5.20284 22.0798 4.98804C23.068 4.27384 23.9208 3.38912 24.5983 2.37543L24.5971 2.37422Z" fill="white"/>
</svg>
