<svg width="28" height="32" viewBox="0 0 28 32" fill="none" xmlns="http://www.w3.org/2000/svg">
<path fill-rule="evenodd" clip-rule="evenodd" d="M12.6223 0.356261C13.1899 -0.11779 14.0154 -0.117776 14.5831 0.356294C18.7882 3.86832 23.5831 3.8411 25.437 3.83058C25.5295 3.83006 25.6147 3.82957 25.6921 3.82957C26.1018 3.82957 26.4943 3.9939 26.7818 4.28573C27.0692 4.57756 27.2276 4.97251 27.2214 5.3821C27.1337 11.1963 26.9007 15.3452 26.4436 18.3855C25.9867 21.4239 25.2865 23.5042 24.1594 25.0708C23.0243 26.6483 21.5653 27.5443 20.0092 28.4043C19.7396 28.5533 19.4647 28.7024 19.1833 28.855C17.8171 29.5961 16.2975 30.4204 14.4941 31.714C13.9613 32.0963 13.244 32.0963 12.7112 31.714C10.9095 30.4216 9.39194 29.5978 8.02776 28.8572C7.74501 28.7037 7.46885 28.5538 7.19812 28.404C5.64317 27.5438 4.18615 26.6475 3.05326 25.0694C1.92857 23.5028 1.23068 21.4226 0.775491 18.3848C0.319983 15.3448 0.0879645 11.1962 0.000174567 5.38212C-0.00601023 4.97253 0.15237 4.57757 0.439834 4.28574C0.727298 3.9939 1.11982 3.82957 1.52946 3.82957C1.60602 3.82957 1.69037 3.83006 1.78207 3.83058C3.62098 3.84112 8.4165 3.86859 12.6223 0.356261ZM3.08636 6.87933C3.18998 11.8434 3.41571 15.3626 3.80063 17.9315C4.22461 20.761 4.82224 22.2883 5.53813 23.2855C6.2458 24.2713 7.17442 24.8951 8.67888 25.7274C8.92397 25.863 9.18244 26.0031 9.45383 26.1503C10.6129 26.7788 12.0077 27.5352 13.6027 28.6089C15.1998 27.5339 16.5967 26.777 17.7577 26.1479C18.0279 26.0015 18.2854 25.862 18.5296 25.727C20.036 24.8945 20.9668 24.2705 21.6764 23.2842C22.3939 22.2869 22.9933 20.7597 23.4187 17.9307C23.8049 15.3622 24.0315 11.8434 24.1352 6.87961C21.7587 6.80452 17.5586 6.31701 13.6026 3.46541C9.65117 6.3136 5.45703 6.80334 3.08636 6.87933Z" fill="#3375BB"/>
</svg>
