<svg width="34" height="31" viewBox="0 0 34 31" fill="none" xmlns="http://www.w3.org/2000/svg">
<path d="M31.4189 1.00012L18.918 10.2499L21.2426 4.79871L31.4189 1.00012Z" fill="#E17726" stroke="#E17726" stroke-width="0.25" stroke-linecap="round" stroke-linejoin="round"/>
<path d="M2.58203 1.00012L14.9716 10.3362L12.7584 4.7987L2.58203 1.00012Z" fill="#E27625" stroke="#E27625" stroke-width="0.25" stroke-linecap="round" stroke-linejoin="round"/>
<path d="M26.916 22.4473L23.5898 27.5285L30.712 29.4895L32.7523 22.5583L26.916 22.4473Z" fill="#E27625" stroke="#E27625" stroke-width="0.25" stroke-linecap="round" stroke-linejoin="round"/>
<path d="M1.26172 22.5583L3.28955 29.4895L10.3994 27.5285L7.08557 22.4473L1.26172 22.5583Z" fill="#E27625" stroke="#E27625" stroke-width="0.25" stroke-linecap="round" stroke-linejoin="round"/>
<path d="M10.0135 13.8634L8.03516 16.848L15.0831 17.1687L14.8482 9.58386L10.0135 13.8634Z" fill="#E27625" stroke="#E27625" stroke-width="0.25" stroke-linecap="round" stroke-linejoin="round"/>
<path d="M23.9875 13.8636L19.0787 9.49768L18.918 17.1688L25.9659 16.8482L23.9875 13.8636Z" fill="#E27625" stroke="#E27625" stroke-width="0.25" stroke-linecap="round" stroke-linejoin="round"/>
<path d="M10.3984 27.5284L14.6643 25.4688L10.992 22.6075L10.3984 27.5284Z" fill="#E27625" stroke="#E27625" stroke-width="0.25" stroke-linecap="round" stroke-linejoin="round"/>
<path d="M19.3359 25.4688L23.5894 27.5284L23.0082 22.6075L19.3359 25.4688Z" fill="#E27625" stroke="#E27625" stroke-width="0.25" stroke-linecap="round" stroke-linejoin="round"/>
<path d="M23.5894 27.5286L19.3359 25.469L19.6821 28.2316L19.645 29.4032L23.5894 27.5286Z" fill="#D5BFB2" stroke="#D5BFB2" stroke-width="0.25" stroke-linecap="round" stroke-linejoin="round"/>
<path d="M10.3984 27.5286L14.3552 29.4032L14.3305 28.2316L14.6643 25.469L10.3984 27.5286Z" fill="#D5BFB2" stroke="#D5BFB2" stroke-width="0.25" stroke-linecap="round" stroke-linejoin="round"/>
<path d="M14.4309 20.7823L10.8945 19.7464L13.3922 18.5994L14.4309 20.7823Z" fill="#233447" stroke="#233447" stroke-width="0.25" stroke-linecap="round" stroke-linejoin="round"/>
<path d="M19.5703 20.7823L20.609 18.5994L23.1191 19.7464L19.5703 20.7823Z" fill="#233447" stroke="#233447" stroke-width="0.25" stroke-linecap="round" stroke-linejoin="round"/>
<path d="M10.3958 27.5285L11.0141 22.4473L7.08203 22.5583L10.3958 27.5285Z" fill="#CC6228" stroke="#CC6228" stroke-width="0.25" stroke-linecap="round" stroke-linejoin="round"/>
<path d="M22.9844 22.4473L23.5903 27.5285L26.9164 22.5583L22.9844 22.4473Z" fill="#CC6228" stroke="#CC6228" stroke-width="0.25" stroke-linecap="round" stroke-linejoin="round"/>
<path d="M25.9659 16.848L18.918 17.1687L19.5733 20.7823L20.612 18.5993L23.122 19.7463L25.9659 16.848Z" fill="#CC6228" stroke="#CC6228" stroke-width="0.25" stroke-linecap="round" stroke-linejoin="round"/>
<path d="M10.8914 19.7463L13.3891 18.5993L14.4278 20.7823L15.0831 17.1687L8.03516 16.848L10.8914 19.7463Z" fill="#CC6228" stroke="#CC6228" stroke-width="0.25" stroke-linecap="round" stroke-linejoin="round"/>
<path d="M8.03516 16.848L10.9904 22.6076L10.8914 19.7463L8.03516 16.848Z" fill="#E27525" stroke="#E27525" stroke-width="0.25" stroke-linecap="round" stroke-linejoin="round"/>
<path d="M23.123 19.7463L23.0117 22.6076L25.9669 16.848L23.123 19.7463Z" fill="#E27525" stroke="#E27525" stroke-width="0.25" stroke-linecap="round" stroke-linejoin="round"/>
<path d="M15.0851 17.1687L14.4297 20.7824L15.2581 25.0495L15.4436 19.4257L15.0851 17.1687Z" fill="#E27525" stroke="#E27525" stroke-width="0.25" stroke-linecap="round" stroke-linejoin="round"/>
<path d="M18.9166 17.1687L18.5703 19.4134L18.7434 25.0495L19.5719 20.7824L18.9166 17.1687Z" fill="#E27525" stroke="#E27525" stroke-width="0.25" stroke-linecap="round" stroke-linejoin="round"/>
<path d="M19.5706 20.7825L18.7422 25.0496L19.3357 25.469L23.0081 22.6077L23.1194 19.7465L19.5706 20.7825Z" fill="#F5841F" stroke="#F5841F" stroke-width="0.25" stroke-linecap="round" stroke-linejoin="round"/>
<path d="M10.8945 19.7465L10.9935 22.6077L14.6658 25.469L15.2593 25.0496L14.4309 20.7825L10.8945 19.7465Z" fill="#F5841F" stroke="#F5841F" stroke-width="0.25" stroke-linecap="round" stroke-linejoin="round"/>
<path d="M19.6474 29.4032L19.6844 28.2316L19.363 27.9602H14.6396L14.3305 28.2316L14.3552 29.4032L10.3984 27.5286L11.7833 28.6632L14.5901 30.5995H19.4L22.2192 28.6632L23.5917 27.5286L19.6474 29.4032Z" fill="#C0AC9D" stroke="#C0AC9D" stroke-width="0.25" stroke-linecap="round" stroke-linejoin="round"/>
<path d="M19.3359 25.4688L18.7423 25.0496H15.2555L14.662 25.4688L14.3281 28.2315L14.6373 27.9601H19.3606L19.6821 28.2315L19.3359 25.4688Z" fill="#161616" stroke="#161616" stroke-width="0.25" stroke-linecap="round" stroke-linejoin="round"/>
<path d="M31.948 10.8542L32.9991 5.74835L31.4164 1.00012L19.3359 9.94163L23.9851 13.8635L30.5508 15.7752L31.9975 14.0855L31.367 13.6292L32.3684 12.7166L31.6019 12.1246L32.6034 11.3599L31.948 10.8542Z" fill="#763E1A" stroke="#763E1A" stroke-width="0.25" stroke-linecap="round" stroke-linejoin="round"/>
<path d="M1 5.74835L2.06338 10.8542L1.38331 11.3599L2.39723 12.1246L1.63061 12.7166L2.63216 13.6292L2.00155 14.0855L3.44824 15.7752L10.014 13.8635L14.6631 9.94163L2.5827 1.00012L1 5.74835Z" fill="#763E1A" stroke="#763E1A" stroke-width="0.25" stroke-linecap="round" stroke-linejoin="round"/>
<path d="M30.5543 15.7751L23.9885 13.8635L25.9669 16.8482L23.0117 22.6076L26.919 22.5583H32.7552L30.5543 15.7751Z" fill="#F5841F" stroke="#F5841F" stroke-width="0.25" stroke-linecap="round" stroke-linejoin="round"/>
<path d="M10.016 13.8635L3.4503 15.7751L1.26172 22.5583H7.08557L10.9928 22.6076L8.03766 16.8482L10.016 13.8635Z" fill="#F5841F" stroke="#F5841F" stroke-width="0.25" stroke-linecap="round" stroke-linejoin="round"/>
<path d="M18.9194 17.1688L19.3398 9.94155L21.244 4.79871H12.7617L14.6659 9.94155L15.0863 17.1688L15.247 19.438L15.2594 25.0496H18.7463L18.7587 19.438L18.9194 17.1688Z" fill="#F5841F" stroke="#F5841F" stroke-width="0.25" stroke-linecap="round" stroke-linejoin="round"/>
</svg>
